<svg xmlns="http://www.w3.org/2000/svg" height="1296" width="1546" version="1.1" xmlns:xlink="http://www.w3.org/1999/xlink" xmlns:svgjs="http://svgjs.com/svgjs"><rect fill="#e8eeeb" width="1546" height="1296"></rect><g><path d="M1063.8 527H925.8C918.2 527 912 520.8 912 513.2V416.1C912 408.5 918.2 402.3 925.8 402.3H963.1C968 402.3 972.5 404.9 975 409.1L979.3 416.4C981.8 420.6 986.3 423.2 991.2 423.2H1063.9C1071.5 423.2 1077.7 429.4 1077.7 437V513.2C1077.7 520.8 1071.5 527 1063.8 527 1063.9 527 1063.9 527 1063.8 527Z" fill="#51e67e" opacity="1" stroke-width="4" stroke="#00000000"></path></g><g><path d="M486.29 1036.66C479.14 1036.64 472.29 1033.8 467.23 1028.75 462.17 1023.69 459.33 1016.83 459.32 1009.69V784.12C459.32 776.97 462.16 770.1 467.22 765.04 472.27 759.97 479.13 757.12 486.29 757.1H679.34C686.5 757.12 693.36 759.97 698.42 765.04 703.47 770.1 706.31 776.97 706.31 784.12V1009.69C706.3 1016.83 703.46 1023.69 698.4 1028.75 693.35 1033.8 686.49 1036.64 679.34 1036.66H486.29Z" fill="#51e67e" opacity="1" stroke-width="4" stroke="#00000000"></path><path d="M537.2 966.71C540.12 954.4 532.49 942.06 520.17 939.15 507.86 936.24 495.51 943.87 492.61 956.19 489.7 968.5 497.33 980.84 509.65 983.75 521.96 986.66 534.3 979.03 537.2 966.71Z" fill="#53df63" opacity="1" stroke-width="4" stroke="#00000000"></path><path d="M514.19 959.73H504.68" stroke="#000000" stroke-width="4" stroke-linecap="round" stroke-linejoin="round" opacity="1" fill="none"></path><path d="M514.19 964.29H504.68" stroke="#000000" stroke-width="4" stroke-linecap="round" stroke-linejoin="round" opacity="1" fill="none"></path><path d="M522.02 968.29C520.78 969.52 519.19 970.36 517.47 970.69 515.75 971.03 513.97 970.85 512.35 970.18 510.74 969.5 509.35 968.36 508.38 966.9 507.41 965.45 506.89 963.73 506.89 961.98 506.89 960.22 507.41 958.51 508.38 957.05 509.35 955.59 510.74 954.45 512.35 953.78 513.97 953.1 515.75 952.93 517.47 953.26 519.19 953.6 520.78 954.44 522.02 955.67" stroke="#000000" stroke-width="4" stroke-linecap="round" stroke-linejoin="round" opacity="1" fill="none"></path><path d="M599.02 977.65C607.96 968.7 607.96 954.2 599.02 945.25 590.07 936.31 575.56 936.31 566.61 945.25 557.66 954.2 557.66 968.7 566.61 977.65 575.56 986.6 590.07 986.6 599.02 977.65Z" fill="#53df63" opacity="1" stroke-width="4" stroke="#00000000"></path><path d="M574.87 952.78L582.65 960.56 590.43 952.78" stroke="#000000" stroke-width="4" stroke-linecap="round" stroke-linejoin="round" opacity="1" fill="none"></path><path d="M582.65 960.56V971.18" stroke="#000000" stroke-width="4" stroke-linecap="round" stroke-linejoin="round" opacity="1" fill="none"></path><path d="M578.2 962.28H587.1" stroke="#000000" stroke-width="4" stroke-linecap="round" stroke-linejoin="round" opacity="1" fill="none"></path><path d="M673.07 966.71C675.99 954.4 668.36 942.06 656.04 939.15 643.73 936.24 631.39 943.87 628.48 956.19 625.57 968.5 633.2 980.84 645.52 983.75 657.83 986.66 670.17 979.03 673.07 966.71Z" fill="#2c5b54" opacity="1" stroke-width="4" stroke="#00000000"></path><path d="M648.78 971.18V952.84H654.61C655.23 952.84 655.85 952.96 656.42 953.19 656.99 953.43 657.51 953.78 657.95 954.22 658.39 954.66 658.74 955.18 658.98 955.75 659.22 956.33 659.34 956.94 659.34 957.56 659.34 958.18 659.22 958.79 658.98 959.37 658.74 959.94 658.39 960.46 657.95 960.9 657.51 961.34 656.99 961.69 656.42 961.92 655.85 962.16 655.23 962.28 654.61 962.28H645.44" stroke="#000000" stroke-width="4" stroke-linecap="round" stroke-linejoin="round" opacity="1" fill="none"></path><path d="M645.44 966.95H652.67" stroke="#000000" stroke-width="4" stroke-linecap="round" stroke-linejoin="round" opacity="1" fill="none"></path><path d="M495.29 886.5C494.4 886.5 493.55 886.15 492.92 885.52 492.29 884.89 491.94 884.04 491.94 883.15 491.94 882.26 492.29 881.41 492.92 880.78 493.55 880.16 494.4 879.8 495.29 879.8H670.34C671.23 879.8 672.08 880.16 672.71 880.78 673.34 881.41 673.69 882.26 673.69 883.15 673.69 884.04 673.34 884.89 672.71 885.52 672.08 886.15 671.23 886.5 670.34 886.5H495.29Z" fill="#53df63" opacity="1" stroke-width="4" stroke="#00000000"></path><path d="M578.98 904.06C587.43 904.06 594.28 897.21 594.28 888.76 594.28 880.31 587.43 873.47 578.98 873.47 570.54 873.47 563.68 880.31 563.68 888.76 563.68 897.21 570.54 904.06 578.98 904.06Z" fill="#76b9dd00" opacity="0" stroke="#00000000" stroke-width="4"></path><path d="M578.98 898.62C587.43 898.62 594.28 891.77 594.28 883.32 594.28 874.87 587.43 868.02 578.98 868.02 570.54 868.02 563.68 874.87 563.68 883.32 563.68 891.77 570.54 898.62 578.98 898.62Z" fill="#76b9dd" opacity="1" stroke-width="4" stroke="#00000000"></path><path d="M557.98 1021.97H607.66" stroke="#00000000" stroke-width="4" stroke-linecap="round" stroke-linejoin="round" opacity="1" fill="none"></path><path d="M495.51 817.32C494.63 817.32 493.78 816.96 493.14 816.33 492.51 815.71 492.16 814.85 492.16 813.97 492.16 813.08 492.51 812.23 493.14 811.6 493.78 810.97 494.63 810.61 495.51 810.61H670.56C671.45 810.61 672.3 810.97 672.93 811.6 673.56 812.23 673.91 813.08 673.91 813.97 673.91 814.85 673.56 815.71 672.93 816.33 672.3 816.96 671.45 817.32 670.56 817.32H495.51Z" fill="#53df63" opacity="1" stroke-width="4" stroke="#00000000"></path><path d="M628.5 829.15C636.94 829.15 643.79 822.3 643.79 813.85 643.79 805.41 636.94 798.56 628.5 798.56 620.04 798.56 613.2 805.41 613.2 813.85 613.2 822.3 620.04 829.15 628.5 829.15Z" fill="#000000" opacity="1" stroke-width="4" stroke="#00000000"></path></g><g><path d="M328.49 599.45C319.61 599.44 311.09 595.91 304.81 589.63 298.53 583.35 295 574.83 294.99 565.96V248.49C295 239.62 298.53 231.1 304.81 224.82 311.09 218.54 319.61 215.01 328.49 215H740.36C749.24 215.01 757.75 218.54 764.03 224.82 770.31 231.1 773.84 239.62 773.86 248.49V565.96C773.84 574.83 770.31 583.35 764.03 589.63 757.75 595.91 749.24 599.44 740.36 599.45H328.49Z" fill="#cecece" opacity="1" stroke-width="4" stroke="#00000000"></path><path d="M295.01 286.96H775.33" stroke="#131313" stroke-width="4" opacity="1" fill="none"></path><path d="M330.23 262.98C337.27 262.98 342.97 257.28 342.97 250.24 342.97 243.2 337.27 237.5 330.23 237.5 323.2 237.5 317.49 243.2 317.49 250.24 317.49 257.28 323.2 262.98 330.23 262.98Z" fill="#e1e1e1" opacity="1" stroke-width="4" stroke="#00000000"></path><path d="M368.84 262.98C375.87 262.98 381.58 257.28 381.58 250.24 381.58 243.2 375.87 237.5 368.84 237.5 361.8 237.5 356.1 243.2 356.1 250.24 356.1 257.28 361.8 262.98 368.84 262.98Z" fill="#e1e1e1" opacity="1" stroke-width="4" stroke="#00000000"></path><path d="M407.43 262.98C414.47 262.98 420.17 257.28 420.17 250.24 420.17 243.2 414.47 237.5 407.43 237.5 400.4 237.5 394.7 243.2 394.7 250.24 394.7 257.28 400.4 262.98 407.43 262.98Z" fill="#e1e1e1" opacity="1" stroke-width="4" stroke="#00000000"></path></g><g><path d="M425.6 384.45H373.8V545.71H425.6V384.45Z" fill="#51e67e" opacity="1" stroke-width="4" stroke="#00000000"></path><path d="M613.02 360.88H561.21V545.71H613.02V360.88Z" fill="#5ce07f" opacity="1" stroke-width="4" stroke="#00000000"></path><path d="M519.25 326.82H467.44V545.71H519.25V326.82Z" fill="#2c5b54" opacity="1" stroke-width="4" stroke="#00000000"></path><path d="M706.67 452.58H654.86V545.71H706.67V452.58Z" fill="#2c5b54" opacity="1" stroke-width="4" stroke="#00000000"></path><path d="M347.89 545.71H732.57" stroke="#00000000" stroke-width="4" stroke-linecap="round" stroke-linejoin="round" opacity="1" fill="none"></path></g><g><path d="M993.5 616.9H1217.6C1229.1 616.9 1238.5 626.3 1238.5 637.8V894.7C1238.5 906.2 1229.1 915.6 1217.6 915.6H993.5C982 915.6 972.6 906.2 972.6 894.7V637.8C972.6 626.2 982 616.9 993.5 616.9Z" fill="#5ce07f" opacity="1" stroke-width="4" stroke="#00000000"></path><path d="M1020.3 682.9L1029.5 692.1 1044.4 677.3" stroke="#000000" stroke-width="4" stroke-linecap="round" stroke-linejoin="round" opacity="1" fill="none"></path><path d="M1038.22 772.62C1042.85 769.41 1044 763.06 1040.8 758.43 1037.59 753.79 1031.24 752.64 1026.61 755.85 1021.97 759.05 1020.82 765.41 1024.02 770.04 1027.23 774.67 1033.59 775.83 1038.22 772.62Z" stroke="#000000" stroke-width="4" stroke-linecap="round" stroke-linejoin="round" opacity="1" fill="none"></path><path d="M1038.21 852.02C1042.84 848.81 1044 842.46 1040.79 837.83 1037.59 833.2 1031.23 832.04 1026.6 835.25 1021.97 838.45 1020.81 844.81 1024.02 849.44 1027.23 854.07 1033.58 855.23 1038.21 852.02Z" stroke="#000000" stroke-width="4" stroke-linecap="round" stroke-linejoin="round" opacity="1" fill="none"></path><path d="M1073.3 686.6H1166.3" stroke="#00000000" stroke-width="4" stroke-linecap="round" stroke-linejoin="round" opacity="1" fill="none"></path><path d="M1073.3 764.3H1166.3" stroke="#00000000" stroke-width="4" stroke-linecap="round" stroke-linejoin="round" opacity="1" fill="none"></path><path d="M1073.3 843H1166.3" stroke="#00000000" stroke-width="4" stroke-linecap="round" stroke-linejoin="round" opacity="1" fill="none"></path></g><g><path d="M761.54 1111.84C766.62 1087.3 769.5 1062.42 770.05 1037.76L766.51 1032.57 666.34 1037.21 666.23 1037.76C666.45 1041.19 666.45 1044.51 666.56 1047.72 667.01 1059.21 667.01 1067.84 666.56 1074.8L696.75 1131.74 761.54 1111.84Z" fill="#cea482" opacity="1" stroke-width="4" stroke="#00000000"></path><path d="M960 1111.84C961.44 1087.85 960.22 1062.86 956.46 1037.76L955.14 1035.55 853.53 1031.35V1037.65C855.19 1041.41 856.84 1044.95 858.06 1047.83 862.04 1056.45 865.03 1066.29 867.13 1075.58L894.88 1130.75 960 1111.84Z" fill="#cea482" opacity="1" stroke-width="4" stroke="#00000000"></path><path d="M707.56 587.83H741.18 794.93 829.2C829.53 597.17 865.8 643.72 874.53 700.55 877.3 718.57 878.85 739.35 880.39 761.25 883.71 807.79 887.58 860.42 905.49 897.35 907.59 901.77 909.69 905.97 911.68 910.06 928.49 944.34 941.65 971.43 948.61 999.07 951.93 1012.11 954.47 1024.83 956.46 1037.76L853.64 1037.88C853.64 1037.88 847.11 1023.61 843.47 1015.54 828.76 982.93 810.52 942.35 796.03 904.09 788.41 883.97 781.44 859.09 775.36 833.77 769.17 855.22 763.86 876.23 761.76 895.14 759.66 914.15 762.42 938.59 765.41 964.46 766.96 978.94 768.72 993.87 769.5 1007.91 770.16 1018.75 770.27 1028.48 770.05 1037.76H666.23C665.13 1014.21 662.81 986.91 659.6 948.98 659.05 942.46 658.49 935.6 657.83 928.31 644.78 772.85 694.32 624.81 703.7 599.93Z" fill="#2c5b54" opacity="1" stroke-width="4" stroke="#00000000"></path><path d="M761.76 895.14C764.97 866.06 765.08 866.72 775.36 833.77L757.78 743.78C757.78 743.78 757.89 743.89 757.78 743.78 757.78 743.78 743.3 673.13 738.43 711.6 730.91 772.85 761.43 893.92 761.76 895.14Z" fill="#2c5b5400" opacity="0" stroke="#00000000" stroke-width="4"></path><path d="M659.93 953.4C684.59 950.31 703.16 929.3 703.16 904.54 703.16 878 682.37 856.44 655.95 855.33 655.29 880.32 655.84 904.87 657.83 928.31 658.27 933.72 658.71 938.81 659.16 943.79 659.27 946.99 659.82 953.4 659.93 953.4Z" fill="#000000" opacity="1" stroke-width="4" stroke="#00000000"></path><path d="M813.83 948.1C830.2 939.69 840.26 923 840.26 904.54 840.26 877.34 818.15 855.33 791.06 855.33 787.74 855.33 784.43 855.67 781.11 856.33 785.86 874.46 790.95 890.49 796.03 903.98 801.01 917.25 806.87 931.62 813.83 948.1Z" fill="#000000" opacity="1" stroke-width="4" stroke="#00000000"></path><path d="M776.13 836.87C765.3 792.65 756.01 741.45 749.27 696.9" stroke="#000000" stroke-width="4" stroke-linecap="round" stroke-linejoin="round" opacity="1" fill="none"></path><path d="M465.78 597.61C467 597.61 468.1 597.28 469.1 596.84 471.75 595.4 473.52 592.52 473.52 589.65 473.52 589.65 481.81 592.08 490.33 592.08 497.29 592.08 502.49 590.53 505.69 587.55 505.69 587.55 505.8 587.44 505.8 587.55 506.8 587.99 518.25 592.56 530.86 597.05L544.83 523.75C514.65 517.31 486.9 516.01 466.33 516.01 425.76 516.01 404.31 518.23 401.1 522.87 400.55 523.53 400.44 524.42 400.77 525.3 403.75 534.37 438.36 536.03 453.02 536.55 438.58 536.03 431.84 540.45 431.51 546.75 431.28 550.51 433.39 554.16 437.59 557.7 437.59 557.7 435.04 560.46 435.38 564.22 435.6 567.21 437.48 569.97 441.01 572.62L444.88 575.28C444.77 575.28 440.02 581.69 448.75 588.77 456.6 594.85 461.8 597.61 465.78 597.61Z" fill="#cea482" opacity="1" stroke-width="4" stroke="#00000000"></path><path d="M623.55 618.51C627.65 618.51 631.4 618.29 634.83 617.73 645 616.08 656.72 609 669.66 596.62 680.16 586.55 691.33 572.96 701.17 558.25 701.28 558.03 701.5 558.14 701.61 558.36L704.6 597.83 829.2 597.83 879.07 437.63 874.53 432.98C852.86 411.31 823.56 408.1 807.98 408.1 801.34 408.1 797.14 408.66 797.14 408.66L729.7 411.97C729.47 411.97 702.94 413.3 686.58 429.66 652.74 464.6 616.15 537.24 615.82 538.02 615.48 537.91 582.31 529.61 543.18 523.31L528.69 596.28C551.47 604.69 593.81 618.51 623.55 618.51Z" fill="#30ffa6" opacity="1" stroke-width="4" stroke="#00000000"></path><path d="M704.2 597.64H831.53" stroke="#00000000" stroke-width="4" stroke-linecap="round" stroke-linejoin="round" opacity="1" fill="none"></path><path d="M680.94 584.45C688.12 576.16 694.98 567.1 701.28 557.59L697.63 513.69 680.94 584.45Z" fill="#30ffa600" opacity="0" stroke="#00000000" stroke-width="4"></path><path d="M787.19 597.72H829.2L845.69 544.75 842.53 540.48 829.26 522 787.19 597.72Z" fill="#30ffa600" opacity="0" stroke="#00000000" stroke-width="4"></path><path d="M615.82 538.02L623.11 553.05" stroke="#00000000" stroke-width="4" stroke-linecap="round" stroke-linejoin="round" opacity="1" fill="none"></path><path d="M486.01 516.57C486.01 516.57 444.99 538.24 443.78 547.19 442.56 556.81 480.82 544.43 480.82 544.43 480.82 544.43 493.75 562.34 508.02 566.87" stroke="#000000" stroke-width="4" stroke-linecap="round" stroke-linejoin="round" opacity="1" fill="none"></path><path d="M473.63 589.21C473.96 584.01 467.33 579.48 467.33 579.48" stroke="#000000" stroke-width="4" stroke-linecap="round" stroke-linejoin="round" opacity="1" fill="none"></path><path d="M444.99 575.17C455.17 581.14 471.31 585.78 469.21 570.85" stroke="#000000" stroke-width="4" stroke-linecap="round" stroke-linejoin="round" opacity="1" fill="none"></path><path d="M437.7 557.59C442.34 560.79 464.45 575.17 470.76 567.32 477.06 559.47 462.24 550.29 462.24 550.29" stroke="#000000" stroke-width="4" stroke-linecap="round" stroke-linejoin="round" opacity="1" fill="none"></path><path d="M957.35 1143.91C958.56 1132.08 959.45 1121.68 960 1111.84H904.5L907.59 1091.28C907.7 1090.61 907.7 1089.84 907.7 1089.18 907.7 1081.22 901.29 1074.8 893.33 1074.8H866.91C870.11 1091.72 866.46 1100.9 863.48 1106.31 860.38 1111.84 851.32 1118.14 842.58 1124.34 835.73 1129.09 828.65 1134.07 824.78 1138.38 823.12 1140.26 821.68 1142.69 821.02 1144.46L957.35 1143.91Z" fill="#2c5b54" opacity="1" stroke-width="4" stroke="#00000000"></path><path d="M955.25 1161.6C956.02 1155.63 956.68 1149.77 957.35 1144.02V1143.8H821.02C818.37 1149.32 817.37 1155.51 818.15 1161.49L955.25 1161.6Z" fill="#000000" opacity="1" stroke-width="4" stroke="#00000000"></path><path d="M753.69 1144.24C756.67 1133.51 759.33 1122.35 761.54 1111.84H703.16L706.26 1091.28C706.37 1090.61 706.37 1089.84 706.37 1089.18 706.37 1081.22 699.95 1074.8 691.99 1074.8H666.56C665.46 1090.5 662.25 1097.47 655.62 1106.31 652.08 1111.07 644.56 1116.71 636.6 1122.79 629.53 1128.1 622.23 1133.62 618.03 1138.38 616.37 1140.26 615.48 1141.58 614.6 1143.24L614.27 1144.35 753.69 1144.24Z" fill="#2c5b54" opacity="1" stroke-width="4" stroke="#00000000"></path><path d="M748.6 1161.6C750.48 1155.63 752.25 1149.66 753.8 1143.91H614.38C611.72 1149.43 610.73 1155.63 611.5 1161.6H748.6Z" fill="#000000" opacity="1" stroke-width="4" stroke="#00000000"></path><path d="M860.76 1110.14L873.43 1119.58" stroke="#00000000" stroke-width="4" stroke-linecap="round" stroke-linejoin="round" opacity="1" fill="none"></path><path d="M652.12 1110.4L665.57 1119.58" stroke="#00000000" stroke-width="4" stroke-linecap="round" stroke-linejoin="round" opacity="1" fill="none"></path><path d="M757.23 441.94C791.17 441.94 800.24 409.1 800.35 408.77 800.24 407.88 792.94 329.83 791.28 314.79 787.96 284.38 771.93 283.5 743.07 283.5 738.76 283.5 733.68 274.77 728.81 275.54 704.27 279.19 686.47 281.84 679.5 300.08 676.63 307.38 677.07 317.88 677.4 328.94 677.51 333.03 677.73 337.12 677.73 341.32 677.73 341.32 668.89 346.52 669.11 350.72 669.44 355.59 679.17 360.45 679.17 360.45 679.72 373.94 680.27 387.87 690 397.82 693.87 401.8 701.17 404.12 709.24 404.12 714.77 404.12 720.19 403.02 725.16 401.03L726.27 413.19C726.27 413.52 734.01 441.94 757.23 441.94Z" fill="#cea482" opacity="1" stroke-width="4" stroke="#00000000"></path><path d="M740.64 391.74C735.22 403.13 728.81 407.99 726.71 409.32 726.38 409.54 725.94 409.32 725.83 408.88L725.16 401.36C725.16 401.14 725.27 400.92 725.38 400.81L739.76 390.97C740.31 390.64 740.97 391.19 740.64 391.74Z" fill="#cea48200" opacity="0" stroke="#00000000" stroke-width="4"></path><path d="M725.16 401.03C729.47 398.26 734.67 394.51 739.2 391.41" stroke="#00000000" stroke-width="4" stroke-linecap="round" stroke-linejoin="round" opacity="1" fill="none"></path><path d="M748.49 357.8L758.44 348.95" stroke="#00000000" stroke-width="4" stroke-linecap="round" stroke-linejoin="round" opacity="1" fill="#ffffff00"></path><path d="M692.88 367.64C696.42 367.2 700.29 365.54 702.28 360.78" stroke="#00000000" stroke-width="4" stroke-linecap="round" stroke-linejoin="round" opacity="1" fill="#ffffff00"></path><path d="M693.54 340.99C691.65 340.99 690.11 339.46 690.11 337.57 690.11 335.67 691.65 334.14 693.54 334.14 695.43 334.14 696.97 335.67 696.97 337.57 696.97 339.46 695.43 340.99 693.54 340.99Z" fill="#00000000" opacity="1" stroke-width="4" stroke="#ffffff00"></path><path d="M789.95 386.43C793.05 386.43 795.48 386.21 796.92 386.1 797.8 385.99 798.36 385.33 798.25 384.44 796.14 359.01 792.61 320.32 791.5 310.03 788.18 279.74 771.82 264.37 742.96 264.37 738.65 264.37 733.9 264.7 729.03 265.48 704.49 269.13 686.24 281.62 679.17 299.86 677.51 304.06 677.18 309.37 676.96 313.79 676.96 314.57 677.51 315.23 678.28 315.34 679.06 315.45 680.05 315.56 681.27 315.56 685.91 315.56 694.98 314.02 706.48 304.06 707.69 303.07 709.35 304.18 709.02 305.61 707.14 312.47 707.25 317.44 709.35 320.43 710.79 322.53 713.33 323.63 716.76 323.63 720.85 323.63 725.49 322.09 728.26 320.98 729.36 320.54 730.47 321.42 730.36 322.53 730.03 326.62 729.92 334.69 733.01 340.44 733.46 341.32 734.67 341.43 735.33 340.88 739.43 337.34 751.92 327.17 762.42 327.17 766.62 327.17 770.16 328.83 772.71 332.15 787.08 350.39 766.62 370.96 760.87 376.26 760.1 376.93 760.21 378.14 761.1 378.69 770.27 385.11 781.77 386.43 789.95 386.43Z" fill="#303030" opacity="1" stroke-width="4" stroke="#00000000"></path><path d="M727.48 624.26C719.63 629.23 712.56 634.87 712.34 637.52 712.12 640.18 716.87 643.27 723.84 642.61L735.33 633.99 727.48 624.26Z" fill="#cea482" opacity="1" stroke-width="4" stroke="#00000000"></path><path d="M781.77 718.35L716.76 605.68 642.13 648.69 707.25 761.36 781.77 718.35Z" fill="#5ce07f" opacity="1" stroke-width="4" stroke="#00000000"></path><path d="M843.29 542.02L856.84 561.24C856.51 561.35 825.22 576.82 801.23 588.21L831.53 656.87C863.15 649.35 919.42 632.22 940.87 602.14 976.03 552.94 905.39 462.38 874.53 432.98" fill="#30ffa6" opacity="1" stroke-width="4" stroke="#00000000"></path><path d="M726.38 711.6C739.54 711.6 806.43 662.29 807.09 661.85 807.2 661.85 817.26 660.3 831.75 656.87L801.67 587.99C791.5 592.75 782.77 596.84 778.34 598.83 737.88 616.3 727.6 624.15 727.48 624.26L733.01 634.21C732.68 634.43 694.21 660.85 687.68 670.69 685.36 674.12 684.59 677.33 685.25 680.09 686.02 683.52 688.79 685.07 688.79 685.07 686.24 689.82 685.69 693.47 687.13 696.01 689.12 699.44 694.21 699.44 694.32 699.44 694.76 703.31 697.3 705.19 701.83 705.19 713.44 705.19 734.78 691.92 735.22 691.7 734.78 692.03 720.41 705.08 722.29 709.83 722.73 711.05 724.06 711.6 726.38 711.6Z" fill="#cea482" opacity="1" stroke-width="4" stroke="#00000000"></path><path d="M701.5 557.7L697.63 513.69" stroke="#000000" stroke-width="4" stroke-linecap="round" stroke-linejoin="round" opacity="1" fill="none"></path><path d="M844.13 543.21L829.09 521.87" stroke="#000000" stroke-width="4" stroke-linecap="round" stroke-linejoin="round" opacity="1" fill="none"></path><path d="M856.84 560.13L879.62 563.67" stroke="#00000000" stroke-width="4" stroke-linecap="round" stroke-linejoin="round" opacity="1" fill="none"></path><path d="M688.79 685.07L737.44 650.79" stroke="#000000" stroke-width="4" stroke-linecap="round" stroke-linejoin="round" opacity="1" fill="none"></path><path d="M694.32 699.44L746.28 665.17" stroke="#000000" stroke-width="4" stroke-linecap="round" stroke-linejoin="round" opacity="1" fill="none"></path><path d="M735.22 691.7L754.02 679.54" stroke="#000000" stroke-width="4" stroke-linecap="round" stroke-linejoin="round" opacity="1" fill="none"></path></g></svg>